# xmcd CD database file
#
# Track frame offsets:
#	150
#	23612
#	49712
#	69212
#	80837
#	96962
#	119987
#	149387
#	166037
#	183892
#	217347
#	232977
#	259625
#	280307
#	301045
#	329432
#
# Disc length: 4499 seconds
#
# Revision: 0
# Processed by: cddbd v1.5.2PL0 Copyright (c) Steve Scherf et al.
# Submitted via: CDex 1.70beta2
#
DISCID=e2119110
DTITLE=Real Blues Band - THE PUZZLE - 10 YEARS REUNION CONCERT
DYEAR=1990
DGENRE=Blues
TTITLE0=JEALOUS WOMAN
TTITLE1=FEELIN' BLUE
TTITLE2=THE PUZZLE (FOR POPPY)
TTITLE3=REMINGTON RIDE
TTITLE4=E. B.
TTITLE5=ROUTE 66
TTITLE6=STORMY MONDAY
TTITLE7=WINDY WINTER
TTITLE8=GRITTA'S LULLABY
TTITLE9=A FOOL NO MORE
TTITLE10=DON'T NEED NO WORRIES
TTITLE11=WOMAN TROUBLE
TTITLE12=LIKE IT THIS WAY
TTITLE13=BLACK HEARTED WOMAN
TTITLE14=HELP ME
TTITLE15=HAPPY BIRTHDAY
EXTD=YEAR: 1990
EXTT0=
EXTT1=
EXTT2=
EXTT3=
EXTT4=
EXTT5=
EXTT6=
EXTT7=
EXTT8=
EXTT9=
EXTT10=
EXTT11=
EXTT12=
EXTT13=
EXTT14=
EXTT15=
PLAYORDER=
